<?xml version="1.0" encoding="UTF-8"?>
<svg width="25px" height="25px" viewBox="0 0 25 25" version="1.1" xmlns="http://www.w3.org/2000/svg" xmlns:xlink="http://www.w3.org/1999/xlink">
    <!-- Generator: Sketch 49 (51002) - http://www.bohemiancoding.com/sketch -->
    <title>Calendar</title>
    <desc>Created with Sketch.</desc>
    <defs></defs>
    <g id="Symbols" stroke="none" stroke-width="1" fill="none" fill-rule="evenodd">
        <g id="Form/calendar" transform="translate(-237.000000, -45.000000)">
            <g id="Calendar" transform="translate(237.000000, 45.000000)">
                <g id="Frame_-_24px" transform="translate(3.000000, 3.000000)">
                    <rect id="Rectangle-path" x="0" y="0" width="20" height="20"></rect>
                </g>
                <g id="Line_Icons" transform="translate(0.666667, 0.666667)" fill="#B7B7B7" fill-rule="nonzero">
                    <path d="M21.6,3.6 L20.4,3.6 L20.4,-1.50990331e-13 L18,-1.50990331e-13 L18,6 L16.8,6 L16.8,3.6 L8.4,3.6 L8.4,-1.50990331e-13 L6,-1.50990331e-13 L6,6 L4.8,6 L4.8,3.6 L2.4,3.6 C1.0764,3.6 0,4.6776 0,6 L0,21.6 C0,22.9236 1.0764,24 2.4,24 L21.6,24 C22.9236,24 24,22.9236 24,21.6 L24,6 C24,4.6776 22.9236,3.6 21.6,3.6 Z M21.5964,21.6 L2.4,21.6 L2.4,8.4 L21.6,8.4 L21.5964,21.6 Z" id="Shape"></path>
                </g>
            </g>
        </g>
    </g>
</svg>