<?xml version="1.0" encoding="UTF-8"?>
<svg width="85px" height="23px" viewBox="0 0 85 23" version="1.1" xmlns="http://www.w3.org/2000/svg" xmlns:xlink="http://www.w3.org/1999/xlink">
    <!-- Generator: Sketch 49 (51002) - http://www.bohemiancoding.com/sketch -->
    <title>Kinship</title>
    <desc>Created with Sketch.</desc>
    <defs></defs>
    <g id="Restaurant-Redesign" stroke="none" stroke-width="1" fill="none" fill-rule="evenodd">
        <g id="Desktop-HD" transform="translate(-132.000000, -45.000000)" fill="#FFFFFF">
            <path d="M138.808594,55.71875 L138.808594,58.7539062 C138.808594,59.4882849 138.931639,59.9960923 139.177734,60.2773438 C139.423829,60.5585952 139.957027,60.6992188 140.777344,60.6992188 L140.777344,62 L132.492188,62 L132.492188,60.6992188 L132.738281,60.6992188 C133.53516,60.6992188 134.052733,60.5527358 134.291016,60.2597656 C134.529298,59.9667954 134.648438,59.4648473 134.648438,58.7539062 L134.648438,49.3554688 C134.648438,48.6289026 134.525392,48.1230483 134.279297,47.8378906 C134.033202,47.5527329 133.519535,47.4101562 132.738281,47.4101562 L132.492188,47.4101562 L132.492188,46.109375 L140.964844,46.109375 L140.964844,47.4101562 L140.707031,47.4101562 C139.917965,47.4101562 139.404298,47.5566392 139.166016,47.8496094 C138.927733,48.1425796 138.808594,48.6445277 138.808594,49.3554688 L138.808594,53.7851562 L143.109375,49.8242188 C143.859379,49.1367153 144.234375,48.5742209 144.234375,48.1367188 C144.234375,47.6523413 143.761723,47.4101562 142.816406,47.4101562 L142.816406,46.109375 L149.847656,46.109375 L149.847656,47.4101562 C149.207028,47.4101562 148.53516,47.5742171 147.832031,47.9023438 C147.128903,48.2304704 146.132819,48.9921815 144.84375,50.1875 L143.402344,51.5234375 L147.773438,58.015625 C148.507816,59.1093805 149.115232,59.8300764 149.595703,60.1777344 C150.076174,60.5253924 150.718746,60.6992188 151.523438,60.6992188 L151.523438,62 L142.394531,62 L142.394531,60.6992188 C143.582037,60.6992188 144.175781,60.4609399 144.175781,59.984375 C144.175781,59.781249 143.933596,59.3281285 143.449219,58.625 L140.425781,54.21875 L138.808594,55.71875 Z M151.570208,47.9492188 C151.570208,47.3710909 151.777237,46.873049 152.191302,46.4550781 C152.605367,46.0371073 153.101455,45.828125 153.679583,45.828125 C154.265524,45.828125 154.761613,46.0351542 155.167865,46.4492188 C155.574117,46.8632833 155.77724,47.3632783 155.77724,47.9492188 C155.77724,48.5351592 155.572163,49.0351542 155.162005,49.4492188 C154.751847,49.8632833 154.257711,50.0703125 153.679583,50.0703125 C153.078018,50.0703125 152.57607,49.857424 152.173724,49.4316406 C151.771378,49.0058572 151.570208,48.5117216 151.570208,47.9492188 Z M155.519427,52.015625 L155.519427,59.1992188 C155.519427,59.7929717 155.613176,60.2011708 155.800677,60.4238281 C155.988178,60.6464855 156.425674,60.7578125 157.113177,60.7578125 L157.113177,62 L149.941302,62 L149.941302,60.7578125 L150.210833,60.7578125 C150.874899,60.7578125 151.294817,60.6406262 151.470599,60.40625 C151.646381,60.1718738 151.734271,59.7695341 151.734271,59.1992188 L151.734271,55.7070312 C151.734271,55.1289034 151.644428,54.7246105 151.46474,54.4941406 C151.285051,54.2636707 150.867087,54.1484375 150.210833,54.1484375 L149.941302,54.1484375 L149.941302,52.90625 L155.519427,52.015625 Z M162.726354,55.4140625 L162.726354,59.2226562 C162.726354,59.769534 162.808385,60.1601551 162.972448,60.3945312 C163.136511,60.6289074 163.429477,60.75 163.851354,60.7578125 L163.851354,62 L157.288854,62 L157.288854,60.7578125 C157.968545,60.7578125 158.402134,60.6503917 158.589635,60.4355469 C158.777136,60.2207021 158.870885,59.8164092 158.870885,59.2226562 L158.870885,55.9414062 C158.870885,55.3476533 158.779089,54.9394542 158.595495,54.7167969 C158.4119,54.4941395 157.976358,54.3828125 157.288854,54.3828125 L157.288854,53.140625 L162.491979,52.2851562 C162.624792,52.5898453 162.702917,53.0585906 162.726354,53.6914062 C163.241982,53.1289034 163.782992,52.7089858 164.349401,52.4316406 C164.91581,52.1542955 165.503695,52.015625 166.113073,52.015625 C167.206828,52.015625 168.066195,52.3183563 168.691198,52.9238281 C169.316201,53.5292999 169.628698,54.3593697 169.628698,55.4140625 L169.628698,59.2226562 C169.628698,59.8085967 169.7244,60.2109364 169.915807,60.4296875 C170.107214,60.6484386 170.523226,60.7578125 171.163854,60.7578125 L171.163854,62 L164.63651,62 L164.63651,60.7578125 C164.964637,60.7421874 165.240025,60.6484384 165.462682,60.4765625 C165.68534,60.3046866 165.796667,59.8867221 165.796667,59.2226562 L165.796667,55.7070312 C165.796667,55.066403 165.708777,54.6289074 165.532995,54.3945312 C165.357213,54.1601551 165.105262,54.0429688 164.777135,54.0429688 C164.449009,54.0429688 164.113075,54.1562489 163.769323,54.3828125 C163.425571,54.6093761 163.077918,54.9531227 162.726354,55.4140625 Z M171.749687,62.3867188 L171.667656,59.1992188 L172.816094,59.1992188 C173.425472,60.5195379 174.542648,61.1796875 176.167656,61.1796875 C176.847347,61.1796875 177.409841,61.0625012 177.855156,60.828125 C178.300471,60.5937488 178.523125,60.3281265 178.523125,60.03125 C178.523125,59.7734362 178.402032,59.5742195 178.159844,59.4335938 C177.909842,59.3007806 177.351254,59.1445321 176.484062,58.9648438 C175.140306,58.6914049 174.148128,58.4316419 173.5075,58.1855469 C172.866872,57.9394519 172.351252,57.5605494 171.960625,57.0488281 C171.569998,56.5371068 171.374687,55.9531283 171.374687,55.296875 C171.374687,54.3203076 171.773121,53.5292999 172.57,52.9238281 C173.366879,52.3183563 174.433275,52.015625 175.769219,52.015625 C176.800474,52.015625 177.851245,52.218748 178.921562,52.625 C179.109063,52.4453116 179.257499,52.2421886 179.366875,52.015625 L180.339531,52.015625 L180.445,54.921875 L179.5075,54.921875 C178.905934,53.7265565 177.706728,53.1289062 175.909844,53.1289062 C175.323903,53.1289062 174.843439,53.2246084 174.468437,53.4160156 C174.093436,53.6074228 173.905937,53.851561 173.905937,54.1484375 C173.905937,54.4609391 174.05828,54.6914055 174.362969,54.8398438 C174.659845,54.988282 175.3864,55.1757801 176.542656,55.4023438 C177.745787,55.6445325 178.650075,55.8906238 179.255547,56.140625 C179.861019,56.3906262 180.337576,56.755857 180.685234,57.2363281 C181.032892,57.7167993 181.206719,58.2734343 181.206719,58.90625 C181.206719,59.9296926 180.753598,60.7656218 179.847344,61.4140625 C178.941089,62.0625032 177.820007,62.3867188 176.484062,62.3867188 C175.46062,62.3867188 174.390318,62.1679709 173.273125,61.7304688 C173.062186,61.8867195 172.905938,62.1054673 172.804375,62.3867188 L171.749687,62.3867188 Z M187.101146,55.5195312 L187.101146,59.1992188 C187.101146,59.753909 187.187082,60.1503894 187.358958,60.3886719 C187.530834,60.6269543 187.843331,60.75 188.296458,60.7578125 L188.296458,62 L181.769114,62 L181.769114,60.7578125 C182.440993,60.7578125 182.86677,60.6445324 183.046458,60.4179688 C183.226147,60.1914051 183.315989,59.7851592 183.315989,59.1992188 L183.315989,49.5546875 C183.315989,48.9687471 183.224194,48.5625011 183.040599,48.3359375 C182.857004,48.1093739 182.43318,47.9960938 181.769114,47.9960938 L181.769114,46.7539062 L187.101146,45.828125 L187.101146,53.7148438 C187.608961,53.1445284 188.15583,52.7187514 188.741771,52.4375 C189.327711,52.1562486 189.952705,52.015625 190.616771,52.015625 C191.429275,52.015625 192.120674,52.1914045 192.690989,52.5429688 C193.261305,52.894533 193.644114,53.32031 193.839427,53.8203125 C194.03474,54.320315 194.132396,55.023433 194.132396,55.9296875 L194.132396,59.1992188 C194.132396,59.8007843 194.226145,60.2109364 194.413646,60.4296875 C194.601147,60.6484386 195.003486,60.7578125 195.620677,60.7578125 L195.620677,62 L189.093333,62 L189.093333,60.7578125 C189.405835,60.7343749 189.683176,60.6406258 189.925364,60.4765625 C190.167553,60.3124992 190.288646,59.8867222 190.288646,59.1992188 L190.288646,55.5195312 C190.288646,54.5117137 189.909743,54.0078125 189.151927,54.0078125 C188.839425,54.0078125 188.511304,54.1328113 188.167552,54.3828125 C187.8238,54.6328137 187.468335,55.0117162 187.101146,55.5195312 Z M197.155729,47.9492188 C197.155729,47.3710909 197.362758,46.873049 197.776823,46.4550781 C198.190887,46.0371073 198.686976,45.828125 199.265104,45.828125 C199.851044,45.828125 200.347133,46.0351542 200.753385,46.4492188 C201.159637,46.8632833 201.36276,47.3632783 201.36276,47.9492188 C201.36276,48.5351592 201.157684,49.0351542 200.747526,49.4492188 C200.337368,49.8632833 199.843232,50.0703125 199.265104,50.0703125 C198.663539,50.0703125 198.16159,49.857424 197.759245,49.4316406 C197.356899,49.0058572 197.155729,48.5117216 197.155729,47.9492188 Z M201.104948,52.015625 L201.104948,59.1992188 C201.104948,59.7929717 201.198697,60.2011708 201.386198,60.4238281 C201.573699,60.6464855 202.011194,60.7578125 202.698698,60.7578125 L202.698698,62 L195.526823,62 L195.526823,60.7578125 L195.796354,60.7578125 C196.46042,60.7578125 196.880338,60.6406262 197.05612,60.40625 C197.231902,60.1718738 197.319792,59.7695341 197.319792,59.1992188 L197.319792,55.7070312 C197.319792,55.1289034 197.229949,54.7246105 197.05026,54.4941406 C196.870572,54.2636707 196.452607,54.1484375 195.796354,54.1484375 L195.526823,54.1484375 L195.526823,52.90625 L201.104948,52.015625 Z M208.054062,61.0390625 L208.054062,64.859375 C208.054062,65.4375029 208.145858,65.8398426 208.329453,66.0664062 C208.513048,66.2929699 208.929059,66.40625 209.5775,66.40625 L209.9525,66.40625 L209.9525,67.6601562 L202.663437,67.6601562 L202.663437,66.40625 C203.335316,66.40625 203.770858,66.3027354 203.970078,66.0957031 C204.169298,65.8886708 204.268906,65.4765656 204.268906,64.859375 L204.268906,55.671875 C204.268906,55.078122 204.175157,54.669923 203.987656,54.4472656 C203.800155,54.2246083 203.358753,54.1132812 202.663437,54.1132812 L202.663437,52.8710938 L207.749375,52.015625 C207.905626,52.5703153 207.98375,53.1289034 207.98375,53.6914062 C208.53844,53.1289034 209.122419,52.7089858 209.735703,52.4316406 C210.348987,52.1542955 210.991559,52.015625 211.663437,52.015625 C212.921256,52.015625 213.99937,52.4824172 214.897812,53.4160156 C215.796254,54.349614 216.245469,55.5742112 216.245469,57.0898438 C216.245469,58.6523516 215.770864,59.9257763 214.82164,60.9101562 C213.872417,61.8945362 212.753288,62.3867188 211.464219,62.3867188 C210.862653,62.3867188 210.278675,62.2734386 209.712265,62.046875 C209.145856,61.8203114 208.593128,61.4843772 208.054062,61.0390625 Z M208.054062,59.6210938 C208.366564,59.9492204 208.696639,60.1972648 209.044297,60.3652344 C209.391955,60.533204 209.753279,60.6171875 210.128281,60.6171875 C210.839222,60.6171875 211.370467,60.3378934 211.722031,59.7792969 C212.073595,59.2207003 212.249375,58.3828181 212.249375,57.265625 C212.249375,56.0937441 212.085314,55.2167998 211.757187,54.6347656 C211.429061,54.0527315 210.936878,53.7617188 210.280625,53.7617188 C209.827498,53.7617188 209.391955,53.9199203 208.973984,54.2363281 C208.556013,54.552736 208.249376,54.9023418 208.054062,55.2851562 L208.054062,59.6210938 Z" id="Kinship"></path>
        </g>
    </g>
</svg>