<?xml version="1.0" encoding="UTF-8"?>
<svg width="67px" height="50px" viewBox="0 0 67 50" version="1.1" xmlns="http://www.w3.org/2000/svg" xmlns:xlink="http://www.w3.org/1999/xlink">
    <!-- Generator: Sketch 49 (51002) - http://www.bohemiancoding.com/sketch -->
    <title>Menu</title>
    <desc>Created with Sketch.</desc>
    <defs></defs>
    <g id="Restaurant-Redesign" stroke="none" stroke-width="1" fill="none" fill-rule="evenodd">
        <g id="Desktop-HD" transform="translate(-687.000000, -1696.000000)" fill="#D6D6D6" fill-rule="nonzero">
            <g id="food-burger" transform="translate(687.000000, 1696.000000)">
                <g id="Line_Icons">
                    <g id="Menu">
                        <path d="M66.6666667,29.88 C66.6666667,26.94844 65.3633333,24.3356 63.3333333,22.51292 L63.3333333,16.6 C63.3333333,7.44676 55.8566667,0 46.6666667,0 L20,0 C10.81,0 3.33333333,7.44676 3.33333333,16.6 L3.33333333,22.51292 C1.30333333,24.3356 0,26.94844 0,29.88 C0,32.81156 1.30333333,35.4244 3.33333333,37.2504 L3.33333333,43.16 C3.33333333,46.82196 6.32,49.8 10,49.8 L56.6666667,49.8 C60.3466667,49.8 63.3333333,46.82196 63.3333333,43.16 L63.3333333,37.2504 C65.3633333,35.4244 66.6666667,32.81156 66.6666667,29.88 Z M10,16.6 C10,11.10872 14.4866667,6.64 20,6.64 L46.6666667,6.64 C52.18,6.64 56.6666667,11.10872 56.6666667,16.6 L56.6666667,19.92 L10,19.92 L10,16.6 Z M56.6666667,33.2 L10,33.2 C8.16333333,33.2 6.66666667,31.70932 6.66666667,29.88 C6.66666667,28.05068 8.16333333,26.56 10,26.56 L56.6666667,26.56 C58.5033333,26.56 60,28.05068 60,29.88 C60,31.70932 58.5033333,33.2 56.6666667,33.2 Z M56.6666667,43.16 L10,43.16 L10,39.84 L56.6666667,39.84 L56.6666667,43.16 Z" id="Shape"></path>
                        <ellipse id="Oval" cx="19.1666667" cy="15.77" rx="2.5" ry="2.49"></ellipse>
                        <ellipse id="Oval" cx="25.8333333" cy="10.79" rx="2.5" ry="2.49"></ellipse>
                        <ellipse id="Oval" cx="33.3333333" cy="15.77" rx="2.5" ry="2.49"></ellipse>
                        <ellipse id="Oval" cx="40" cy="10.79" rx="2.5" ry="2.49"></ellipse>
                        <ellipse id="Oval" cx="47.5" cy="15.77" rx="2.5" ry="2.49"></ellipse>
                    </g>
                </g>
            </g>
        </g>
    </g>
</svg>